<svg width="148" height="28" viewBox="0 0 148 28" fill="none" xmlns="http://www.w3.org/2000/svg">
<mask id="path-1-outside-1" maskUnits="userSpaceOnUse" x="0" y="0" width="148" height="28" fill="black">
<rect fill="white" width="148" height="28"/>
<path d="M27.9453 18.623C27.5127 21.2995 26.1426 23.3676 23.835 24.8275C21.5435 26.2758 18.4908 27 14.677 27C10.5426 27 7.22555 25.9283 4.72572 23.7848C2.24191 21.6413 1 18.7736 1 15.1818V12.7487C1 10.3966 1.57689 8.32843 2.73066 6.54412C3.90045 4.7598 5.55098 3.3926 7.68225 2.44251C9.81352 1.48084 12.2813 1 15.0856 1C18.8033 1 21.7839 1.75312 24.0273 3.25936C26.2708 4.75401 27.5768 6.82799 27.9453 9.48128H23.3062C22.9056 7.46524 22.0323 6.00535 20.6862 5.1016C19.3562 4.19786 17.4893 3.74599 15.0856 3.74599C12.1371 3.74599 9.82153 4.53387 8.13895 6.10963C6.4724 7.68538 5.63912 9.92736 5.63912 12.8356V15.2861C5.63912 18.0321 6.43233 20.2161 8.01877 21.8382C9.6052 23.4603 11.8246 24.2714 14.677 24.2714C17.2409 24.2714 19.2039 23.8543 20.566 23.0201C21.9441 22.1742 22.8575 20.7086 23.3062 18.623H27.9453Z"/>
<path d="M44.9394 14.0521L54.0734 1.34759H59.3135L47.247 17.2152V26.6524H42.6319V17.2152L30.5654 1.34759H35.8535L44.9394 14.0521Z"/>
<path d="M88.8548 18.623C88.4221 21.2995 87.052 23.3676 84.7445 24.8275C82.453 26.2758 79.4003 27 75.5864 27C71.4521 27 68.135 25.9283 65.6352 23.7848C63.1514 21.6413 61.9094 18.7736 61.9094 15.1818V12.7487C61.9094 10.3966 62.4863 8.32843 63.6401 6.54412C64.8099 4.7598 66.4604 3.3926 68.5917 2.44251C70.723 1.48084 73.1908 1 75.9951 1C79.7128 1 82.6933 1.75312 84.9368 3.25936C87.1802 4.75401 88.4862 6.82799 88.8548 9.48128H84.2157C83.8151 7.46524 82.9417 6.00535 81.5957 5.1016C80.2656 4.19786 78.3987 3.74599 75.9951 3.74599C73.0465 3.74599 70.731 4.53387 69.0484 6.10963C67.3818 7.68538 66.5486 9.92736 66.5486 12.8356V15.2861C66.5486 18.0321 67.3418 20.2161 68.9282 21.8382C70.5147 23.4603 72.7341 24.2714 75.5864 24.2714C78.1504 24.2714 80.1134 23.8543 81.4755 23.0201C82.8536 22.1742 83.767 20.7086 84.2157 18.623H88.8548Z"/>
<path d="M99.8156 23.9238H116.401V26.6524H95.1765V1.34759H99.8156V23.9238Z"/>
<path d="M147 14.8168C147 17.2963 146.423 19.463 145.269 21.3168C144.116 23.1591 142.481 24.5668 140.366 25.5401C138.251 26.5134 135.783 27 132.962 27C130.206 27 127.762 26.5134 125.631 25.5401C123.5 24.5553 121.841 23.1591 120.656 21.3516C119.486 19.5325 118.885 17.4296 118.853 15.0428V13.2179C118.853 10.7848 119.438 8.63547 120.608 6.77005C121.777 4.90463 123.428 3.4795 125.559 2.49465C127.706 1.49822 130.158 1 132.914 1C135.719 1 138.186 1.49242 140.318 2.47727C142.465 3.45053 144.116 4.86988 145.269 6.73529C146.423 8.58913 147 10.75 147 13.2179V14.8168ZM142.409 13.1832C142.409 10.1823 141.576 7.88235 139.909 6.28342C138.243 4.67291 135.911 3.86765 132.914 3.86765C129.998 3.86765 127.698 4.67291 126.016 6.28342C124.349 7.88235 123.492 10.107 123.444 12.9572V14.8168C123.444 17.725 124.285 20.0134 125.968 21.6818C127.666 23.3387 129.998 24.1671 132.962 24.1671C135.943 24.1671 138.251 23.385 139.885 21.8209C141.52 20.2451 142.361 17.9915 142.409 15.0602V13.1832Z"/>
</mask>
<path d="M27.9453 18.623C27.5127 21.2995 26.1426 23.3676 23.835 24.8275C21.5435 26.2758 18.4908 27 14.677 27C10.5426 27 7.22555 25.9283 4.72572 23.7848C2.24191 21.6413 1 18.7736 1 15.1818V12.7487C1 10.3966 1.57689 8.32843 2.73066 6.54412C3.90045 4.7598 5.55098 3.3926 7.68225 2.44251C9.81352 1.48084 12.2813 1 15.0856 1C18.8033 1 21.7839 1.75312 24.0273 3.25936C26.2708 4.75401 27.5768 6.82799 27.9453 9.48128H23.3062C22.9056 7.46524 22.0323 6.00535 20.6862 5.1016C19.3562 4.19786 17.4893 3.74599 15.0856 3.74599C12.1371 3.74599 9.82153 4.53387 8.13895 6.10963C6.4724 7.68538 5.63912 9.92736 5.63912 12.8356V15.2861C5.63912 18.0321 6.43233 20.2161 8.01877 21.8382C9.6052 23.4603 11.8246 24.2714 14.677 24.2714C17.2409 24.2714 19.2039 23.8543 20.566 23.0201C21.9441 22.1742 22.8575 20.7086 23.3062 18.623H27.9453Z" stroke="white" stroke-width="2" mask="url(#path-1-outside-1)"/>
<path d="M44.9394 14.0521L54.0734 1.34759H59.3135L47.247 17.2152V26.6524H42.6319V17.2152L30.5654 1.34759H35.8535L44.9394 14.0521Z" stroke="white" stroke-width="2" mask="url(#path-1-outside-1)"/>
<path d="M88.8548 18.623C88.4221 21.2995 87.052 23.3676 84.7445 24.8275C82.453 26.2758 79.4003 27 75.5864 27C71.4521 27 68.135 25.9283 65.6352 23.7848C63.1514 21.6413 61.9094 18.7736 61.9094 15.1818V12.7487C61.9094 10.3966 62.4863 8.32843 63.6401 6.54412C64.8099 4.7598 66.4604 3.3926 68.5917 2.44251C70.723 1.48084 73.1908 1 75.9951 1C79.7128 1 82.6933 1.75312 84.9368 3.25936C87.1802 4.75401 88.4862 6.82799 88.8548 9.48128H84.2157C83.8151 7.46524 82.9417 6.00535 81.5957 5.1016C80.2656 4.19786 78.3987 3.74599 75.9951 3.74599C73.0465 3.74599 70.731 4.53387 69.0484 6.10963C67.3818 7.68538 66.5486 9.92736 66.5486 12.8356V15.2861C66.5486 18.0321 67.3418 20.2161 68.9282 21.8382C70.5147 23.4603 72.7341 24.2714 75.5864 24.2714C78.1504 24.2714 80.1134 23.8543 81.4755 23.0201C82.8536 22.1742 83.767 20.7086 84.2157 18.623H88.8548Z" stroke="white" stroke-width="2" mask="url(#path-1-outside-1)"/>
<path d="M99.8156 23.9238H116.401V26.6524H95.1765V1.34759H99.8156V23.9238Z" stroke="white" stroke-width="2" mask="url(#path-1-outside-1)"/>
<path d="M147 14.8168C147 17.2963 146.423 19.463 145.269 21.3168C144.116 23.1591 142.481 24.5668 140.366 25.5401C138.251 26.5134 135.783 27 132.962 27C130.206 27 127.762 26.5134 125.631 25.5401C123.5 24.5553 121.841 23.1591 120.656 21.3516C119.486 19.5325 118.885 17.4296 118.853 15.0428V13.2179C118.853 10.7848 119.438 8.63547 120.608 6.77005C121.777 4.90463 123.428 3.4795 125.559 2.49465C127.706 1.49822 130.158 1 132.914 1C135.719 1 138.186 1.49242 140.318 2.47727C142.465 3.45053 144.116 4.86988 145.269 6.73529C146.423 8.58913 147 10.75 147 13.2179V14.8168ZM142.409 13.1832C142.409 10.1823 141.576 7.88235 139.909 6.28342C138.243 4.67291 135.911 3.86765 132.914 3.86765C129.998 3.86765 127.698 4.67291 126.016 6.28342C124.349 7.88235 123.492 10.107 123.444 12.9572V14.8168C123.444 17.725 124.285 20.0134 125.968 21.6818C127.666 23.3387 129.998 24.1671 132.962 24.1671C135.943 24.1671 138.251 23.385 139.885 21.8209C141.52 20.2451 142.361 17.9915 142.409 15.0602V13.1832Z" stroke="white" stroke-width="2" mask="url(#path-1-outside-1)"/>
</svg>

